<svg xmlns="http://www.w3.org/2000/svg" width="32" height="32"><path d="M0 0 C10.56 0 21.12 0 32 0 C32 10.56 32 21.12 32 32 C21.44 32 10.88 32 0 32 C0 21.44 0 10.88 0 0 Z " fill="#25211D" transform="translate(0,0)"></path><path d="M0 0 C10.56 0 21.12 0 32 0 C32 4.62 32 9.24 32 14 C31.67 13.34 31.34 12.68 31 12 C27.37 12 23.74 12 20 12 C17 5.375 17 5.375 17 2 C16.34 2 15.68 2 15 2 C14.86722656 2.63808594 14.73445312 3.27617188 14.59765625 3.93359375 C14.42105469 4.75988281 14.24445312 5.58617187 14.0625 6.4375 C13.88847656 7.26121094 13.71445313 8.08492187 13.53515625 8.93359375 C13 11 13 11 12 12 C7.99779347 12.14355117 4.00558317 12.04216403 0 12 C0 8.04 0 4.08 0 0 Z " fill="#21201F" transform="translate(0,0)"></path><path d="M0 0 C0.66 0 1.32 0 2 0 C2.99 2.97 3.98 5.94 5 9 C10.445 9.495 10.445 9.495 16 10 C16 10.66 16 11.32 16 12 C9.25 16 9.25 16 7 16 C7.515625 17.0725 8.03125 18.145 8.5625 19.25 C10.00603317 22.25254899 10.05818094 23.83246499 9 27 C8.55269531 26.61585937 8.10539062 26.23171875 7.64453125 25.8359375 C5.8129084 24.37532567 4.07097707 23.09817991 2 22 C-0.70835053 22.34977824 -0.70835053 22.34977824 -3 24 C-3.928125 24.53625 -4.85625 25.0725 -5.8125 25.625 C-6.8953125 26.305625 -6.8953125 26.305625 -8 27 C-7.46228519 23.62007831 -6.85696068 20.31262111 -6 17 C-6.5775 16.66226562 -7.155 16.32453125 -7.75 15.9765625 C-8.4925 15.53054687 -9.235 15.08453125 -10 14.625 C-11.11375 13.96371094 -11.11375 13.96371094 -12.25 13.2890625 C-12.8275 12.86367187 -13.405 12.43828125 -14 12 C-14 11.34 -14 10.68 -14 10 C-8.555 9.505 -8.555 9.505 -3 9 C-2.01 6.03 -1.02 3.06 0 0 Z " fill="#BF6809" transform="translate(15,2)"></path></svg>